<svg width="1329" height="315" viewBox="0 0 1329 315" fill="none" xmlns="http://www.w3.org/2000/svg">
<circle cx="157.5" cy="157.5" r="157.5" fill="#010101"/>
<path d="M122.652 110.832H123.238C130.562 90.5195 143.746 80.3633 162.789 80.3633C165.23 80.3633 167.232 80.5098 168.795 80.8027C170.357 80.998 171.432 81.1934 172.018 81.3887C173.482 81.877 174.215 83 174.215 84.7578V120.061C174.215 123.088 172.457 123.918 168.941 122.551C167.77 122.062 166.061 121.574 163.814 121.086C161.666 120.5 158.639 120.207 154.732 120.207C144.674 120.207 136.812 123.918 131.148 131.34C125.484 138.664 122.652 148.674 122.652 161.369V225.236C122.652 228.166 122.018 230.217 120.748 231.389C119.576 232.463 117.525 233 114.596 233H84.4199C81.4902 233 79.3906 232.463 78.1211 231.389C76.9492 230.217 76.3633 228.166 76.3633 225.236V102.482C76.3633 100.139 76.8516 98.332 77.8281 97.0625C79.8789 94.3281 82.3203 91.5449 85.1523 88.7129C88.082 85.8809 91.6465 82.8535 95.8457 79.6309C96.627 79.0449 97.4082 78.6543 98.1895 78.459C98.9707 78.2637 99.6543 78.166 100.24 78.166C101.607 78.166 102.975 78.6543 104.342 79.6309C112.447 85.9785 118.111 91.3984 121.334 95.8906C122.213 97.0625 122.652 98.4297 122.652 99.9922V110.832Z" fill="white"/>
<path d="M211.744 240.538L239.046 226.203V226.209C239.654 225.888 240.034 225.279 240.034 224.616V196.103L211.745 210.957L211.744 240.538Z" fill="url(#paint0_linear_83_15)"/>
<path d="M180 224.617C180 225.279 180.38 225.889 180.988 226.21L208.289 240.545V210.957L180.001 196.103L180 224.617Z" fill="url(#paint1_linear_83_15)"/>
<path d="M224.078 185.917L210.853 192.858C210.334 193.133 209.699 193.133 209.18 192.858L195.955 185.91L181.845 193.317L210.017 208.111L238.188 193.324L224.078 185.917Z" fill="url(#paint2_linear_83_15)"/>
<path d="M211.744 159.063V188.652L239.046 174.31C239.654 173.995 240.034 173.386 240.034 172.724V144.21L211.744 159.063Z" fill="url(#paint3_linear_83_15)"/>
<path d="M180.989 174.308L208.29 188.65V159.061L180.001 144.208V172.721C180.001 173.383 180.38 173.993 180.989 174.308Z" fill="url(#paint4_linear_83_15)"/>
<path d="M209.18 140.964L195.948 134.016L181.838 141.429L210.017 156.224L238.195 141.429L224.085 134.016L210.853 140.964C210.597 141.095 210.307 141.167 210.017 141.174C209.727 141.174 209.436 141.101 209.18 140.964Z" fill="url(#paint5_linear_83_15)"/>
<path d="M211.744 107.168V136.75L239.046 122.421C239.654 122.1 240.034 121.49 240.034 120.828V92.3153L211.744 107.168Z" fill="url(#paint6_linear_83_15)"/>
<path d="M180.989 122.421L208.29 136.75V107.168L180.001 92.315V120.828C180.001 121.49 180.38 122.1 180.989 122.421Z" fill="url(#paint7_linear_83_15)"/>
<path d="M238.196 89.5352L210.944 75.2261C210.37 74.9246 209.666 74.9246 209.092 75.2261L181.84 89.5352L210.019 104.329L238.196 89.5352Z" fill="url(#paint8_linear_83_15)"/>
<path d="M384.79 66H415.76C426.527 66 434.38 68.5333 439.32 73.6C444.26 78.54 446.73 86.2033 446.73 96.59V104.76C446.73 118.567 442.17 127.307 433.05 130.98V131.36C438.117 132.88 441.663 135.983 443.69 140.67C445.843 145.357 446.92 151.627 446.92 159.48V182.85C446.92 186.65 447.047 189.753 447.3 192.16C447.553 194.44 448.187 196.72 449.2 199H427.92C427.16 196.847 426.653 194.82 426.4 192.92C426.147 191.02 426.02 187.6 426.02 182.66V158.34C426.02 152.26 425.007 148.017 422.98 145.61C421.08 143.203 417.723 142 412.91 142H405.69V199H384.79V66ZM413.29 123C417.47 123 420.573 121.923 422.6 119.77C424.753 117.617 425.83 114.007 425.83 108.94V98.68C425.83 93.8667 424.943 90.3833 423.17 88.23C421.523 86.0767 418.863 85 415.19 85H405.69V123H413.29ZM477.571 66H505.881L527.541 199H506.641L502.841 172.59V172.97H479.091L475.291 199H455.911L477.571 66ZM500.371 154.92L491.061 89.18H490.681L481.561 154.92H500.371ZM567.71 200.9C557.576 200.9 549.85 198.05 544.53 192.35C539.21 186.523 536.55 178.227 536.55 167.46V66H557.45V168.98C557.45 173.54 558.336 176.833 560.11 178.86C562.01 180.887 564.67 181.9 568.09 181.9C571.51 181.9 574.106 180.887 575.88 178.86C577.78 176.833 578.73 173.54 578.73 168.98V66H598.87V167.46C598.87 178.227 596.21 186.523 590.89 192.35C585.57 198.05 577.843 200.9 567.71 200.9ZM613.755 66H643.585L656.885 161.19H657.265L670.565 66H700.395V199H680.635V98.3H680.255L665.055 199H647.575L632.375 98.3H631.995V199H613.755V66ZM746.421 66H772.641L792.971 145.61H793.351V66H811.971V199H790.501L765.421 101.91H765.041V199H746.421V66ZM827.505 66H884.505V85H848.405V120.15H877.095V139.15H848.405V180H884.505V199H827.505V66ZM912.868 85H891.018V66H955.618V85H933.768V199H912.868V85ZM961.539 66H981.679L990.989 168.22H991.369L1001.25 66H1024.05L1033.93 168.22H1034.31L1043.62 66H1061.67L1048.18 199H1022.15L1012.65 109.32H1012.27L1002.77 199H975.029L961.539 66ZM1102.45 200.9C1092.19 200.9 1084.34 197.987 1078.89 192.16C1073.44 186.333 1070.72 178.1 1070.72 167.46V97.54C1070.72 86.9 1073.44 78.6667 1078.89 72.84C1084.34 67.0133 1092.19 64.1 1102.45 64.1C1112.71 64.1 1120.56 67.0133 1126.01 72.84C1131.46 78.6667 1134.18 86.9 1134.18 97.54V167.46C1134.18 178.1 1131.46 186.333 1126.01 192.16C1120.56 197.987 1112.71 200.9 1102.45 200.9ZM1102.45 181.9C1109.67 181.9 1113.28 177.53 1113.28 168.79V96.21C1113.28 87.47 1109.67 83.1 1102.45 83.1C1095.23 83.1 1091.62 87.47 1091.62 96.21V168.79C1091.62 177.53 1095.23 181.9 1102.45 181.9ZM1148.32 66H1179.29C1190.05 66 1197.91 68.5333 1202.85 73.6C1207.79 78.54 1210.26 86.2033 1210.26 96.59V104.76C1210.26 118.567 1205.7 127.307 1196.58 130.98V131.36C1201.64 132.88 1205.19 135.983 1207.22 140.67C1209.37 145.357 1210.45 151.627 1210.45 159.48V182.85C1210.45 186.65 1210.57 189.753 1210.83 192.16C1211.08 194.44 1211.71 196.72 1212.73 199H1191.45C1190.69 196.847 1190.18 194.82 1189.93 192.92C1189.67 191.02 1189.55 187.6 1189.55 182.66V158.34C1189.55 152.26 1188.53 148.017 1186.51 145.61C1184.61 143.203 1181.25 142 1176.44 142H1169.22V199H1148.32V66ZM1176.82 123C1181 123 1184.1 121.923 1186.13 119.77C1188.28 117.617 1189.36 114.007 1189.36 108.94V98.68C1189.36 93.8667 1188.47 90.3833 1186.7 88.23C1185.05 86.0767 1182.39 85 1178.72 85H1169.22V123H1176.82ZM1224.95 66H1245.85V122.05L1272.45 66H1293.35L1268.46 114.83L1293.73 199H1271.88L1254.21 139.72L1245.85 156.63V199H1224.95V66Z" fill="black"/>
<path d="M381.56 270V242H393.64C396.76 242 399.173 242.627 400.88 243.88C402.613 245.133 403.48 246.907 403.48 249.2C403.48 250.72 403.12 252 402.4 253.04C401.707 254.08 400.747 254.867 399.52 255.4C398.32 255.933 397 256.2 395.56 256.2L396.24 255.24C398.027 255.24 399.56 255.52 400.84 256.08C402.147 256.613 403.16 257.427 403.88 258.52C404.6 259.587 404.96 260.92 404.96 262.52C404.96 264.893 404.08 266.733 402.32 268.04C400.587 269.347 397.96 270 394.44 270H381.56ZM384.52 267.56H394.4C396.853 267.56 398.733 267.147 400.04 266.32C401.347 265.467 402 264.12 402 262.28C402 260.467 401.347 259.147 400.04 258.32C398.733 257.467 396.853 257.04 394.4 257.04H384.2V254.6H393.44C395.68 254.6 397.413 254.173 398.64 253.32C399.893 252.467 400.52 251.2 400.52 249.52C400.52 247.813 399.893 246.547 398.64 245.72C397.413 244.867 395.68 244.44 393.44 244.44H384.52V267.56ZM419.796 270.2C418.01 270.2 416.45 269.867 415.116 269.2C413.783 268.533 412.743 267.533 411.996 266.2C411.276 264.867 410.916 263.2 410.916 261.2V249H413.756V260.88C413.756 263.12 414.303 264.813 415.396 265.96C416.516 267.08 418.076 267.64 420.076 267.64C421.543 267.64 422.81 267.347 423.876 266.76C424.97 266.147 425.796 265.267 426.356 264.12C426.943 262.973 427.236 261.6 427.236 260V249H430.076V270H427.356V264.24L427.796 265.28C427.13 266.827 426.09 268.04 424.676 268.92C423.29 269.773 421.663 270.2 419.796 270.2ZM437.991 270V249H440.831V270H437.991ZM439.431 244.36C438.845 244.36 438.351 244.16 437.951 243.76C437.551 243.36 437.351 242.88 437.351 242.32C437.351 241.76 437.551 241.293 437.951 240.92C438.351 240.52 438.845 240.32 439.431 240.32C440.018 240.32 440.511 240.507 440.911 240.88C441.311 241.253 441.511 241.72 441.511 242.28C441.511 242.867 441.311 243.36 440.911 243.76C440.538 244.16 440.045 244.36 439.431 244.36ZM448.733 270V240.32H451.573V270H448.733ZM467.836 270.2C465.836 270.2 464.036 269.747 462.436 268.84C460.862 267.933 459.622 266.68 458.716 265.08C457.809 263.453 457.356 261.587 457.356 259.48C457.356 257.347 457.809 255.48 458.716 253.88C459.622 252.28 460.862 251.04 462.436 250.16C464.036 249.253 465.836 248.8 467.836 248.8C469.676 248.8 471.316 249.213 472.756 250.04C474.222 250.867 475.382 252.08 476.236 253.68C477.116 255.253 477.556 257.187 477.556 259.48C477.556 261.747 477.129 263.68 476.276 265.28C475.422 266.88 474.262 268.107 472.796 268.96C471.356 269.787 469.702 270.2 467.836 270.2ZM468.036 267.68C469.529 267.68 470.862 267.347 472.036 266.68C473.236 265.987 474.169 265.027 474.836 263.8C475.529 262.547 475.876 261.107 475.876 259.48C475.876 257.827 475.529 256.387 474.836 255.16C474.169 253.933 473.236 252.987 472.036 252.32C470.862 251.627 469.529 251.28 468.036 251.28C466.569 251.28 465.249 251.627 464.076 252.32C462.902 252.987 461.969 253.933 461.276 255.16C460.582 256.387 460.236 257.827 460.236 259.48C460.236 261.107 460.582 262.547 461.276 263.8C461.969 265.027 462.902 265.987 464.076 266.68C465.249 267.347 466.569 267.68 468.036 267.68ZM475.956 270V263.68L476.236 259.44L475.836 255.2V240.32H478.676V270H475.956ZM486.585 270V249H489.425V270H486.585ZM488.025 244.36C487.438 244.36 486.945 244.16 486.545 243.76C486.145 243.36 485.945 242.88 485.945 242.32C485.945 241.76 486.145 241.293 486.545 240.92C486.945 240.52 487.438 240.32 488.025 240.32C488.612 240.32 489.105 240.507 489.505 240.88C489.905 241.253 490.105 241.72 490.105 242.28C490.105 242.867 489.905 243.36 489.505 243.76C489.132 244.16 488.638 244.36 488.025 244.36ZM508.047 248.8C509.754 248.8 511.247 249.133 512.527 249.8C513.834 250.44 514.847 251.427 515.567 252.76C516.314 254.093 516.687 255.773 516.687 257.8V270H513.847V258.08C513.847 255.867 513.287 254.2 512.167 253.08C511.074 251.933 509.527 251.36 507.527 251.36C506.034 251.36 504.727 251.667 503.607 252.28C502.514 252.867 501.661 253.733 501.047 254.88C500.461 256 500.167 257.36 500.167 258.96V270H497.327V249H500.047V254.76L499.607 253.68C500.274 252.16 501.341 250.973 502.807 250.12C504.274 249.24 506.021 248.8 508.047 248.8ZM533.318 277.96C531.398 277.96 529.558 277.68 527.798 277.12C526.038 276.56 524.612 275.76 523.518 274.72L524.958 272.56C525.945 273.44 527.158 274.133 528.598 274.64C530.065 275.173 531.612 275.44 533.238 275.44C535.905 275.44 537.865 274.813 539.118 273.56C540.372 272.333 540.998 270.413 540.998 267.8V262.56L541.398 258.96L541.118 255.36V249H543.838V267.44C543.838 271.067 542.945 273.72 541.158 275.4C539.398 277.107 536.785 277.96 533.318 277.96ZM532.798 269.2C530.798 269.2 528.998 268.773 527.398 267.92C525.798 267.04 524.532 265.827 523.598 264.28C522.692 262.733 522.238 260.96 522.238 258.96C522.238 256.96 522.692 255.2 523.598 253.68C524.532 252.133 525.798 250.933 527.398 250.08C528.998 249.227 530.798 248.8 532.798 248.8C534.665 248.8 536.345 249.187 537.838 249.96C539.332 250.733 540.518 251.88 541.398 253.4C542.278 254.92 542.718 256.773 542.718 258.96C542.718 261.147 542.278 263 541.398 264.52C540.518 266.04 539.332 267.2 537.838 268C536.345 268.8 534.665 269.2 532.798 269.2ZM533.078 266.68C534.625 266.68 535.998 266.36 537.198 265.72C538.398 265.053 539.345 264.147 540.038 263C540.732 261.827 541.078 260.48 541.078 258.96C541.078 257.44 540.732 256.107 540.038 254.96C539.345 253.813 538.398 252.92 537.198 252.28C535.998 251.613 534.625 251.28 533.078 251.28C531.558 251.28 530.185 251.613 528.958 252.28C527.758 252.92 526.812 253.813 526.118 254.96C525.452 256.107 525.118 257.44 525.118 258.96C525.118 260.48 525.452 261.827 526.118 263C526.812 264.147 527.758 265.053 528.958 265.72C530.185 266.36 531.558 266.68 533.078 266.68ZM562.81 270V242H574.21C577.197 242 579.81 242.6 582.05 243.8C584.317 244.973 586.077 246.613 587.33 248.72C588.583 250.827 589.21 253.253 589.21 256C589.21 258.747 588.583 261.173 587.33 263.28C586.077 265.387 584.317 267.04 582.05 268.24C579.81 269.413 577.197 270 574.21 270H562.81ZM565.77 267.44H574.05C576.53 267.44 578.677 266.96 580.49 266C582.33 265.013 583.757 263.667 584.77 261.96C585.783 260.227 586.29 258.24 586.29 256C586.29 253.733 585.783 251.747 584.77 250.04C583.757 248.333 582.33 247 580.49 246.04C578.677 245.053 576.53 244.56 574.05 244.56H565.77V267.44ZM604.177 270.2C601.99 270.2 600.07 269.747 598.417 268.84C596.764 267.907 595.47 266.64 594.537 265.04C593.604 263.413 593.137 261.56 593.137 259.48C593.137 257.4 593.577 255.56 594.457 253.96C595.364 252.36 596.59 251.107 598.137 250.2C599.71 249.267 601.47 248.8 603.417 248.8C605.39 248.8 607.137 249.253 608.657 250.16C610.204 251.04 611.417 252.293 612.297 253.92C613.177 255.52 613.617 257.373 613.617 259.48C613.617 259.613 613.604 259.76 613.577 259.92C613.577 260.053 613.577 260.2 613.577 260.36H595.297V258.24H612.057L610.937 259.08C610.937 257.56 610.604 256.213 609.937 255.04C609.297 253.84 608.417 252.907 607.297 252.24C606.177 251.573 604.884 251.24 603.417 251.24C601.977 251.24 600.684 251.573 599.537 252.24C598.39 252.907 597.497 253.84 596.857 255.04C596.217 256.24 595.897 257.613 595.897 259.16V259.6C595.897 261.2 596.244 262.613 596.937 263.84C597.657 265.04 598.644 265.987 599.897 266.68C601.177 267.347 602.63 267.68 604.257 267.68C605.537 267.68 606.724 267.453 607.817 267C608.937 266.547 609.897 265.853 610.697 264.92L612.297 266.76C611.364 267.88 610.19 268.733 608.777 269.32C607.39 269.907 605.857 270.2 604.177 270.2ZM622.638 255.56H637.438V258.12H622.638V255.56ZM622.958 270H619.998V242H639.198V244.56H622.958V270ZM644.71 270V249H647.55V270H644.71ZM646.15 244.36C645.563 244.36 645.07 244.16 644.67 243.76C644.27 243.36 644.07 242.88 644.07 242.32C644.07 241.76 644.27 241.293 644.67 240.92C645.07 240.52 645.563 240.32 646.15 240.32C646.737 240.32 647.23 240.507 647.63 240.88C648.03 241.253 648.23 241.72 648.23 242.28C648.23 242.867 648.03 243.36 647.63 243.76C647.257 244.16 646.763 244.36 646.15 244.36Z" fill="black"/>
<defs>
<linearGradient id="paint0_linear_83_15" x1="210.018" y1="75" x2="210" y2="241" gradientUnits="userSpaceOnUse">
<stop stop-color="#2563EB"/>
<stop offset="1" stop-color="#1A365D"/>
</linearGradient>
<linearGradient id="paint1_linear_83_15" x1="210.018" y1="75" x2="210" y2="241" gradientUnits="userSpaceOnUse">
<stop stop-color="#2563EB"/>
<stop offset="1" stop-color="#1A365D"/>
</linearGradient>
<linearGradient id="paint2_linear_83_15" x1="210.018" y1="75" x2="210" y2="241" gradientUnits="userSpaceOnUse">
<stop stop-color="#2563EB"/>
<stop offset="1" stop-color="#1A365D"/>
</linearGradient>
<linearGradient id="paint3_linear_83_15" x1="210.018" y1="75" x2="210" y2="241" gradientUnits="userSpaceOnUse">
<stop stop-color="#2563EB"/>
<stop offset="1" stop-color="#1A365D"/>
</linearGradient>
<linearGradient id="paint4_linear_83_15" x1="210.018" y1="75" x2="210" y2="241" gradientUnits="userSpaceOnUse">
<stop stop-color="#2563EB"/>
<stop offset="1" stop-color="#1A365D"/>
</linearGradient>
<linearGradient id="paint5_linear_83_15" x1="210.018" y1="75" x2="210" y2="241" gradientUnits="userSpaceOnUse">
<stop stop-color="#2563EB"/>
<stop offset="1" stop-color="#1A365D"/>
</linearGradient>
<linearGradient id="paint6_linear_83_15" x1="210.018" y1="75" x2="210" y2="241" gradientUnits="userSpaceOnUse">
<stop stop-color="#2563EB"/>
<stop offset="1" stop-color="#1A365D"/>
</linearGradient>
<linearGradient id="paint7_linear_83_15" x1="210.018" y1="75" x2="210" y2="241" gradientUnits="userSpaceOnUse">
<stop stop-color="#2563EB"/>
<stop offset="1" stop-color="#1A365D"/>
</linearGradient>
<linearGradient id="paint8_linear_83_15" x1="210.018" y1="75" x2="210" y2="241" gradientUnits="userSpaceOnUse">
<stop stop-color="#2563EB"/>
<stop offset="1" stop-color="#1A365D"/>
</linearGradient>
</defs>
</svg>
